<svg id="Layer_3" enable-background="new 0 0 64 64" height="512" viewBox="0 0 64 64" width="512" xmlns="http://www.w3.org/2000/svg"><path d="m54 56h4c2.209 0 4-1.791 4-4v-10c0-2.209-1.791-4-4-4h-4" fill="#2d4d83"/><path d="m10 56h-4c-2.209 0-4-1.791-4-4v-10c0-2.209 1.791-4 4-4h4" fill="#2d4d83"/><path d="m50 62h-36c-2.209 0-4-1.791-4-4v-40h44v40c0 2.209-1.791 4-4 4z" fill="#4472b2"/><path d="m16 52h32v10h-32z" fill="#976947"/><path d="m14 46h36v6h-36z" fill="#c18e59"/><path d="m18 20h-7c-3.314 0-6-2.686-6-6v-6c0-3.314 2.686-6 6-6h42c3.314 0 6 2.686 6 6v6c0 3.314-2.686 6-6 6h-7" fill="#2d4d83"/><path d="m12 2v6c0 1.105.895 2 2 2h36c1.105 0 2-.895 2-2v-6" fill="#4472b2"/><path d="m18 16h4v20h-4z" fill="#c18e59"/><path d="m42 16h4v20h-4z" fill="#c18e59"/><path d="m16 28h8v4h-8z" fill="#976947"/><path d="m40 28h8v4h-8z" fill="#976947"/><path d="m22 19h20v2h-20z"/><path d="m53 21h-7v-2h7c2.757 0 5-2.243 5-5v-6c0-2.757-2.243-5-5-5h-42c-2.757 0-5 2.243-5 5v6c0 2.757 2.243 5 5 5h7v2h-7c-3.859 0-7-3.141-7-7v-6c0-3.859 3.141-7 7-7h42c3.859 0 7 3.141 7 7v6c0 3.859-3.141 7-7 7z"/><path d="m23 28h-2v-11h-2v11h-2v-12c0-.553.447-1 1-1h4c.553 0 1 .447 1 1z"/><path d="m22 37h-4c-.553 0-1-.447-1-1v-4h2v3h2v-3h2v4c0 .553-.447 1-1 1z"/><path d="m24 33h-8c-.553 0-1-.447-1-1v-4c0-.553.447-1 1-1h8c.553 0 1 .447 1 1v4c0 .553-.447 1-1 1zm-7-2h6v-2h-6z"/><path d="m47 28h-2v-11h-2v11h-2v-12c0-.553.447-1 1-1h4c.553 0 1 .447 1 1z"/><path d="m46 37h-4c-.553 0-1-.447-1-1v-4h2v3h2v-3h2v4c0 .553-.447 1-1 1z"/><path d="m48 33h-8c-.553 0-1-.447-1-1v-4c0-.553.447-1 1-1h8c.553 0 1 .447 1 1v4c0 .553-.447 1-1 1zm-7-2h6v-2h-6z"/><path d="m50 63h-36c-2.757 0-5-2.243-5-5v-38h2v38c0 1.654 1.346 3 3 3h36c1.654 0 3-1.346 3-3v-38h2v38c0 2.757-2.243 5-5 5z"/><path d="m58 57h-4v-2h4c1.654 0 3-1.346 3-3v-10c0-1.654-1.346-3-3-3h-4v-2h4c2.757 0 5 2.243 5 5v10c0 2.757-2.243 5-5 5z"/><path d="m10 57h-4c-2.757 0-5-2.243-5-5v-10c0-2.757 2.243-5 5-5h4v2h-4c-1.654 0-3 1.346-3 3v10c0 1.654 1.346 3 3 3h4z"/><path d="m50 53h-36c-.553 0-1-.447-1-1v-6c0-.553.447-1 1-1h36c.553 0 1 .447 1 1v6c0 .553-.447 1-1 1zm-35-2h34v-4h-34z"/><path d="m15 52h2v10h-2z"/><path d="m47 52h2v10h-2z"/><path d="m50 11h-36c-1.654 0-3-1.346-3-3v-6h2v6c0 .552.448 1 1 1h36c.552 0 1-.448 1-1v-6h2v6c0 1.654-1.346 3-3 3z"/></svg>