<svg height="414pt" viewBox="-8 0 414 414.96615" width="414pt" xmlns="http://www.w3.org/2000/svg"><path d="m355.46875 193.097656c0 88.601563-71.824219 160.429688-160.425781 160.429688-88.601563 0-160.425781-71.828125-160.425781-160.429688 0-88.597656 71.824218-160.425781 160.425781-160.425781 88.601562 0 160.425781 71.828125 160.425781 160.425781zm0 0" fill="#edebdc"/><path d="m220.230469 124.539062 30.179687 30.183594 38.4375-37.507812-47.996094-110.382813-15.089843 60.363281h-30.179688l-31.742187 67.007813 26.207031 20.519531zm0 0" fill="#fff"/><path d="m190.050781 161.550781c-1.480469 0-2.96875-.480469-4.207031-1.453125l-26.214844-20.515625c-2.507812-1.972656-3.324218-5.414062-1.957031-8.300781l31.746094-67.011719c1.125-2.382812 3.527343-3.902343 6.167969-3.902343h24.851562l13.800781-55.195313c.703125-2.835937 3.136719-4.90625 6.058594-5.1445312 2.875-.2578128 5.660156 1.3984372 6.820313 4.0781252l47.992187 110.386719c1.132813 2.601562.539063 5.632812-1.492187 7.613281l-38.441407 37.503906c-2.679687 2.605469-6.953125 2.585937-9.589843-.058594l-25.355469-25.355469-25.351563 25.355469c-1.328125 1.320313-3.078125 2-4.828125 2zm-17.707031-29.355469 17.152344 13.425782 25.90625-25.910156c2.5625-2.558594 7.09375-2.558594 9.652344 0l25.414062 25.414062 30.242188-29.503906-38.109376-87.644532-10.21875 40.871094c-.757812 3.039063-3.484374 5.171875-6.621093 5.171875h-25.859375zm0 0" fill="#4c241d"/><path d="m391.765625 353.921875-102.917969-236.707031-38.4375 37.507812-30.179687-30.183594-30.183594 30.183594-26.207031-20.519531-104.078125 219.71875zm0 0" fill="#c1dbdc"/><path d="m391.761719 360.75h-332c-2.339844 0-4.515625-1.199219-5.769531-3.175781-1.25-1.976563-1.398438-4.457031-.398438-6.574219l104.074219-219.71875c.890625-1.875 2.582031-3.242188 4.601562-3.722656 2.007813-.488282 4.140625-.007813 5.777344 1.269531l21.449219 16.792969 25.90625-25.910156c2.558594-2.558594 7.09375-2.558594 9.652344 0l25.414062 25.414062 33.613281-32.796875c1.605469-1.566406 3.898438-2.230469 6.078125-1.8125 2.207032.433594 4.054688 1.921875 4.945313 3.976563l102.917969 236.707031c.917968 2.109375.710937 4.542969-.554688 6.46875-1.257812 1.921875-3.40625 3.082031-5.707031 3.082031zm-321.214844-13.652344h310.800781l-94.8125-218.082031-31.359375 30.59375c-2.679687 2.605469-6.953125 2.585937-9.59375-.058594l-25.355469-25.355469-25.351562 25.355469c-2.445312 2.441407-6.320312 2.667969-9.03125.550781l-19.492188-15.257812zm0 0" fill="#4c241d"/><path d="m14.136719 380.832031h211.625v27.308594h-211.625zm0 0" fill="#bf7e68"/><path d="m225.761719 414.964844h-211.625c-3.769531 0-6.828125-3.054688-6.828125-6.824219v-27.308594c0-3.769531 3.058594-6.824219 6.828125-6.824219h211.625c3.773437 0 6.828125 3.054688 6.828125 6.824219v27.308594c0 3.769531-3.054688 6.824219-6.828125 6.824219zm-204.796875-13.652344h197.972656v-13.652344h-197.972656zm0 0" fill="#4c241d"/><path d="m123.363281 270.757812v-67.417968h-102.398437v177.496094h197.972656v-14.503907c0-29.691406-24.074219-53.765625-53.765625-53.765625-23.089844 0-41.808594-18.71875-41.808594-41.808594zm0 0" fill="#a9ba5a"/><path d="m218.9375 387.660156h-197.972656c-3.773438 0-6.828125-3.058594-6.828125-6.828125v-177.492187c0-3.769532 3.054687-6.828125 6.828125-6.828125h102.398437c3.769531 0 6.828125 3.058593 6.828125 6.828125v67.417968c0 19.289063 15.691406 34.980469 34.976563 34.980469 33.414062 0 60.59375 27.183594 60.59375 60.59375v14.5c0 3.769531-3.050781 6.828125-6.824219 6.828125zm-191.148438-13.652344h184.320313v-7.675781c0-25.882812-21.058594-46.9375-46.941406-46.9375-26.816407 0-48.632813-21.816406-48.632813-48.636719v-60.589843h-88.746094zm0 0" fill="#4c241d"/><path d="m7.308594 182.859375h129.707031v47.785156h-129.707031zm0 0" fill="#fc8c29"/><path d="m137.015625 237.472656h-129.707031c-3.769532 0-6.824219-3.054687-6.824219-6.828125v-47.785156c0-3.769531 3.054687-6.828125 6.824219-6.828125h129.707031c3.769531 0 6.828125 3.058594 6.828125 6.828125v47.785156c0 3.773438-3.058594 6.828125-6.828125 6.828125zm-122.878906-13.652344h116.054687v-34.132812h-116.054687zm0 0" fill="#4c241d"/><path d="m75.578125 374.007812c0-26.394531-21.398437-47.789062-47.789063-47.789062-2.324218 0-4.589843.222656-6.824218.542969v54.070312h54.070312c.320313-2.234375.542969-4.5.542969-6.824219zm0 0" fill="#fc8c29"/><path d="m75.03125 387.660156h-54.066406c-3.773438 0-6.828125-3.058594-6.828125-6.828125v-54.070312c0-3.394531 2.496093-6.277344 5.859375-6.757813 2.921875-.417968 5.398437-.609375 7.792968-.609375 30.113282 0 54.613282 24.496094 54.613282 54.613281 0 2.394532-.191406 4.871094-.613282 7.789063-.480468 3.367187-3.359374 5.863281-6.757812 5.863281zm-47.242188-13.652344h40.960938c0-22.585937-18.375-40.960937-40.960938-40.960937zm0 0" fill="#4c241d"/><path d="m201.914062 353.527344h-45.421874c-10.757813 0-19.476563 8.71875-19.476563 19.476562v7.828125h81.917969v-10.285156c.003906-9.398437-7.621094-17.019531-17.019532-17.019531zm0 0" fill="#fc8c29"/><g fill="#4c241d"><path d="m218.9375 387.660156h-81.921875c-3.769531 0-6.824219-3.058594-6.824219-6.828125v-7.828125c0-14.503906 11.796875-26.304687 26.300782-26.304687h45.421874c13.148438 0 23.847657 10.699219 23.847657 23.851562v10.28125c0 3.769531-3.050781 6.828125-6.824219 6.828125zm-75.09375-13.652344h68.265625v-3.457031c0-5.625-4.574219-10.199219-10.195313-10.199219h-45.421874c-6.976563 0-12.648438 5.675782-12.648438 12.652344zm0 0"/><path d="m123.363281 278.433594h-27.308593c-3.769532 0-6.824219-3.058594-6.824219-6.828125s3.054687-6.824219 6.824219-6.824219h27.308593c3.769531 0 6.828125 3.054688 6.828125 6.824219s-3.058594 6.828125-6.828125 6.828125zm0 0"/><path d="m102.878906 305.742188c-2.976562 0-5.714844-1.960938-6.5625-4.96875-1.03125-3.628907 1.078125-7.402344 4.707032-8.429688l21.84375-6.183594c3.613281-1.027344 7.398437 1.078125 8.425781 4.707032 1.03125 3.625-1.078125 7.398437-4.707031 8.425781l-21.84375 6.1875c-.621094.175781-1.246094.261719-1.863282.261719zm0 0"/><path d="m116.535156 333.046875c-1.792968 0-3.585937-.703125-4.925781-2.101563-2.609375-2.722656-2.519531-7.042968.199219-9.652343l20.816406-19.964844c2.71875-2.609375 7.042969-2.519531 9.652344.199219 2.609375 2.722656 2.519531 7.042968-.199219 9.652344l-20.816406 19.96875c-1.320313 1.269531-3.027344 1.898437-4.726563 1.898437zm0 0"/></g><path d="m389.859375 305.738281-30.882813-31.3125h20.371094l-24.242187-31.316406h15.882812l-30.023437-49.582031-35.144532 49.582031h19.113282l-27.476563 31.316406h23.605469l-34.117188 31.3125zm0 0" fill="#a9ba5a"/><path d="m389.863281 312.566406h-102.921875c-2.8125 0-5.339844-1.726562-6.359375-4.351562-1.019531-2.621094-.328125-5.601563 1.746094-7.503906l21.199219-19.460938h-6.074219c-2.679687 0-5.113281-1.570312-6.21875-4.011719-1.109375-2.441406-.679687-5.300781 1.085937-7.316406l17.539063-19.984375h-4.039063c-2.554687 0-4.894531-1.425781-6.066406-3.695312-1.167968-2.265626-.980468-4.996094.5-7.078126l35.136719-49.582031c1.328125-1.875 3.542969-2.984375 5.816406-2.878906 2.300781.082031 4.398438 1.320313 5.589844 3.285156l30.023437 49.585938c1.269532 2.109375 1.316407 4.738281.105469 6.886719-1.207031 2.148437-3.480469 3.476562-5.949219 3.476562h-1.957031l15.726563 20.304688c1.59375 2.058593 1.875 4.847656.726562 7.1875-1.148437 2.335937-3.519531 3.820312-6.125 3.820312h-4.054687l19.425781 19.695312c1.933594 1.960938 2.5 4.886719 1.441406 7.425782-1.0625 2.542968-3.542968 4.195312-6.296875 4.195312zm-85.386719-13.652344h69.066407l-19.425781-19.699218c-1.933594-1.957032-2.5-4.886719-1.441407-7.425782 1.066407-2.539062 3.546875-4.195312 6.300781-4.195312h6.453126l-15.726563-20.304688c-1.597656-2.058593-1.875-4.847656-.730469-7.1875 1.148438-2.335937 3.519532-3.816406 6.128906-3.816406h3.765626l-18.351563-30.320312-21.488281 30.320312h5.90625c2.679687 0 5.113281 1.566406 6.222656 4.007813 1.105469 2.445312.679688 5.304687-1.089844 7.320312l-17.539062 19.984375h8.535156c2.8125 0 5.339844 1.726563 6.359375 4.351563 1.019531 2.621093.328125 5.601562-1.746094 7.503906zm0 0" fill="#4c241d"/><path d="m341.816406 360.351562c-3.773437 0-6.828125-3.054687-6.828125-6.824218v-47.789063c0-3.769531 3.054688-6.824219 6.828125-6.824219 3.773438 0 6.828125 3.054688 6.828125 6.824219v47.789063c0 3.769531-3.054687 6.824218-6.828125 6.824218zm0 0" fill="#4c241d"/></svg>