<svg id="Layer_1" enable-background="new 0 0 512 512" height="512" viewBox="0 0 512 512" width="512" xmlns="http://www.w3.org/2000/svg"><g clip-rule="evenodd" fill-rule="evenodd"><path d="m77.258 349.327h-49.934c-26.355 0-26.355 36.317 0 36.317h49.934l15.672-18.158z" fill="#838383"/><path d="m55.068 349.327h22.19v36.317h-22.19z" fill="#595959"/><path d="m116.819 385.643-20.319-18.158-19.242 18.158v30.849l21.197 13.995 18.364-13.995z" fill="#ececec"/><path d="m99.901 385.643v30.849h12.922 3.996v-30.849z" fill="#cecece"/><path d="m430.222 56.556h-278.772c-11.732 0-21.339 9.603-21.339 21.331v21.331l161.193 26.628 160.258-26.628v-21.331c0-11.727-9.607-21.331-21.34-21.331z" fill="#fe636e"/><path d="m372.835 385.643h-295.577v-231.836c0-30.028 23.777-54.588 52.853-54.588h321.452c29.076 0 52.881 24.589 52.881 54.588v213.622c0 10-8.162 18.158-18.137 18.215h-113.472z" fill="#ffd659"/><path d="m372.835 311.452c-20.121 0-38.315 8.243-51.379 21.529-11.761 11.954-19.384 28.016-20.518 45.863-2.607 41.472 30.238 76.599 71.897 76.599s74.475-35.127 71.897-76.599c-1.134-17.847-8.757-33.909-20.518-45.863-13.064-13.285-31.258-21.529-51.379-21.529z" fill="#838383"/><path d="m372.835 354.851c-15.813 0-28.623 12.804-28.623 28.583 0 .765.028 1.473.085 2.21 1.134 14.759 13.489 26.402 28.538 26.402 15.048 0 27.404-11.643 28.509-26.402.057-.737.085-1.445.085-2.21.001-15.779-12.809-28.583-28.594-28.583z" fill="#ececec"/><path d="m504.443 283.719h-255.478l-20.744 19.291 20.744 22.323h81.334c11.902-8.725 26.611-13.881 42.537-13.881 15.898 0 30.606 5.156 42.537 13.881h89.07z" fill="#fe636e"/><path d="m144.733 280.716h-67.475v44.617h67.475l25.194-23.087z" fill="#fe636e"/><path d="m228.957 218.848h-64.217c-10.996 0-20.007 8.98-20.007 19.971v41.897 44.617 60.31h104.232v-60.31-26.317-15.297-44.9c0-10.991-8.984-19.971-20.008-19.971z" fill="#ececec"/><path d="m229.949 140.861h-66.455c-10.315 0-18.761 8.442-18.761 18.753s8.445 18.725 18.761 18.725h66.455c10.315 0 18.761-8.413 18.761-18.725s-8.445-18.753-18.761-18.753z" fill="#a6e7f0"/><path d="m348.18 153.807c-24.343 0-44.237 19.915-44.237 44.248 0 24.334 19.894 44.248 44.237 44.248h55.658v-88.497h-55.658z" fill="#a6e7f0"/><path d="m403.839 153.807h100.604v88.497h-100.604z" fill="#a6e7f0"/><path d="m116.819 416.492h-39.561-7.68c-8.473 0-15.417 6.94-15.417 15.439 0 8.47 6.943 15.41 15.417 15.41h54.893c8.502 0 15.445-6.94 15.445-15.41 0-8.498-6.943-15.439-15.445-15.439z" fill="#838383"/><path d="m504.443 153.807c0-29.999-23.805-54.588-52.881-54.588h-26.242c4.874.028 9.607.737 14.085 2.04 22.218 6.459 38.626 27.62 38.626 52.548z" fill="#ffbf00"/><path d="m478.031 242.303h26.412v41.416h-26.412z" fill="#ffbf00"/><path d="m478.031 283.719h26.412v41.614h-26.412z" fill="#fb2a39"/><path d="m504.443 325.333h-26.412v42.095c0 10-8.162 18.158-18.137 18.215h26.412c9.975-.057 18.137-8.215 18.137-18.215z" fill="#ffbf00"/><path d="m430.222 56.556h-26.242c11.732 0 21.339 9.603 21.339 21.331v21.331h26.242v-21.331c.001-11.727-9.606-21.331-21.339-21.331z" fill="#fb2a39"/><path d="m228.957 218.848h-64.217c-10.996 0-20.007 8.98-20.007 19.971v22.464c0-10.991 9.012-20 20.007-20h64.217c11.024 0 20.007 9.008 20.007 20v-22.464c.001-10.991-8.983-19.971-20.007-19.971z" fill="#cecece"/><path d="m229.949 140.861h-66.455c-10.315 0-18.761 8.442-18.761 18.753 0 2.861.652 5.581 1.814 8.017 2.862-6.742 9.55-11.501 17.315-11.501h66.427c7.453 0 13.915 4.391 16.947 10.708.935-2.238 1.474-4.674 1.474-7.224 0-10.312-8.445-18.753-18.761-18.753z" fill="#6bd9e7"/><path d="m380.175 153.807h-31.995c-24.343 0-44.237 19.915-44.237 44.248 0 2.776.255 5.496.737 8.13 3.854-20.481 21.935-36.09 43.501-36.09h27.875c3.729.242 4.12 3.679 4.12 3.679v68.53h23.663v-88.497z" fill="#6bd9e7"/><path d="m478.031 153.807h-74.192v16.289h67.987c5.54.012 6.205 4.678 6.205 4.678v67.53h26.412v-88.497z" fill="#6bd9e7"/><path d="m139.916 431.931c0-8.498-6.943-15.439-15.445-15.439h-7.652-3.996-5.243c8.473 0 15.417 6.94 15.417 15.439 0 8.47-6.943 15.41-15.417 15.41h16.89c8.502.001 15.446-6.94 15.446-15.41z" fill="#595959"/><path d="m415.373 325.333c-11.931-8.725-26.639-13.881-42.537-13.881-5.866 0-11.534.68-17.004 2.011 16.522 2.04 31.315 9.688 42.395 20.963 11.761 11.983 19.384 28.045 20.518 45.863.113 1.813.142 3.598.142 5.354-.34 33.342-23.493 61.642-55.035 69.262 2.947.368 5.923.538 8.984.538 39.363 0 70.82-31.359 71.982-69.8.085-2.238.057-4.504-.085-6.799-1.134-17.847-8.757-33.909-20.518-45.863-2.75-2.776-5.697-5.325-8.842-7.648z" fill="#595959"/><path d="m401.43 383.434c0-15.779-12.809-28.583-28.594-28.583-2.551 0-4.988.34-7.34.935 12.271 3.258 21.283 14.391 21.283 27.648 0 .765-.028 1.473-.085 2.21-.935 12.294-9.635 22.407-21.198 25.439 2.352.623 4.789.963 7.34.963 15.048 0 27.404-11.643 28.509-26.402.056-.737.085-1.445.085-2.21z" fill="#cecece"/></g><path d="m163.494 185.895h66.455c14.512 0 26.318-11.79 26.318-26.281 0-14.508-11.806-26.31-26.318-26.31h-66.455c-14.512 0-26.318 11.802-26.318 26.31 0 14.491 11.806 26.281 26.318 26.281zm0-37.478h66.455c6.177 0 11.203 5.023 11.203 11.197 0 6.157-5.026 11.168-11.203 11.168h-66.455c-6.178 0-11.203-5.01-11.203-11.168 0-6.174 5.025-11.197 11.203-11.197z"/><path d="m459.119 92.165v-14.278c0-15.929-12.963-28.887-28.897-28.887h-278.773c-15.934 0-28.897 12.958-28.897 28.887v14.278c-29.753 3.84-52.852 30.009-52.852 61.641v126.91 44.616 16.438h-42.376c-10.362 0-16.735 4.338-20.256 7.976-4.558 4.711-7.068 11.01-7.068 17.739 0 12.779 9.386 25.714 27.324 25.714h42.376v15.737h-.123c-12.667 0-22.974 10.315-22.974 22.995 0 12.663 10.306 22.966 22.974 22.966h54.893c12.683 0 23.002-10.303 23.002-22.966 0-12.68-10.319-22.995-23.002-22.995h-.094v-15.737h20.357 104.232 44.872c2.013 16.665 9.209 32.177 20.986 44.717 15.191 16.176 35.794 25.084 58.012 25.084 22.201 0 42.791-8.899 57.977-25.056 11.786-12.542 18.992-28.061 21.014-44.744h34.523c14.144-.08 25.651-11.641 25.651-25.771v-125.125-88.497c0-31.634-23.111-57.804-52.881-61.642zm-47.723 69.198h85.49v73.384h-85.49zm-281.286-54.588h142.688c4.174 0 7.557-3.383 7.557-7.556s-3.384-7.556-7.557-7.556h-135.13v-13.776c0-7.596 6.183-13.774 13.782-13.774h278.773c7.599 0 13.782 6.179 13.782 13.774v13.774h-138.22c-4.174 0-7.557 3.383-7.557 7.556s3.383 7.556 7.557 7.556h145.777c22.513 0 41.236 17.123 44.731 39.475h-92.454-55.659c-28.56 0-51.795 23.24-51.795 51.806 0 28.565 23.235 51.805 51.795 51.805h55.658 93.047v26.302h-136.406c-4.174 0-7.557 3.383-7.557 7.556s3.383 7.556 7.557 7.556h136.406v26.501h-79.095c-13.128-9.022-28.647-13.881-44.955-13.881-16.307 0-31.827 4.859-44.954 13.881h-71.359v-26.501h71.396c4.174 0 7.557-3.383 7.557-7.556s-3.383-7.556-7.557-7.556h-71.396v-37.343c0-15.179-12.366-27.528-27.565-27.528h-64.217c-15.199 0-27.565 12.349-27.565 27.528v34.341h-52.36v-119.353c0-25.933 20.319-47.031 45.295-47.031zm218.07 127.972c-20.225 0-36.68-16.46-36.68-36.692 0-20.233 16.455-36.693 36.68-36.693h48.101v73.384h-48.101zm-231.361 143.34h-32.004v-45.197h52.361v45.197zm-32.004-89.814h52.361v29.503h-52.361zm-69.7 79.212c0-2.785 1-5.353 2.815-7.228 2.135-2.206 5.383-3.373 9.394-3.373h42.376v21.203h-42.376c-9.012 0-12.209-5.712-12.209-10.602zm117.243 64.447c0 4.33-3.538 7.853-7.887 7.853h-54.893c-4.333 0-7.859-3.523-7.859-7.853 0-4.346 3.526-7.883 7.859-7.883h7.68 39.562 7.652c4.348 0 7.886 3.536 7.886 7.883zm-23.096-22.996h-24.447v-15.737h24.447zm43.029-30.849v-139.268c0-6.846 5.585-12.415 12.45-12.415h64.217c6.865 0 12.45 5.57 12.45 12.415v139.267h-89.117zm141.13 0h-36.899v-45.197h54.859c-10.531 12.782-16.845 28.581-17.96 45.197zm126.377 49.506c-12.299 13.087-28.977 20.294-46.963 20.294-18.001 0-34.691-7.216-46.995-20.317-12.325-13.123-18.49-30.26-17.359-48.246.98-15.426 7.501-30.002 18.364-41.044 12.22-12.427 28.553-19.271 45.99-19.271s33.771 6.844 45.992 19.272c10.862 11.041 17.383 25.617 18.362 41.032 1.12 18.009-5.056 35.155-17.391 48.28zm66.508-49.506h-34.056c-1.114-16.614-7.428-32.414-17.961-45.197h62.596v34.539c0 5.842-4.765 10.624-10.579 10.658z"/><path d="m372.835 347.294c-19.949 0-36.18 16.212-36.18 36.139 0 19.943 16.23 36.168 36.18 36.168 19.934 0 36.152-16.225 36.152-36.168 0-19.926-16.217-36.139-36.152-36.139zm0 57.194c-11.615 0-21.065-9.446-21.065-21.055 0-11.593 9.449-21.026 21.065-21.026 11.6 0 21.037 9.433 21.037 21.026 0 11.61-9.437 21.055-21.037 21.055z"/></svg>