<svg id="Capa_1" enable-background="new 0 0 511.93 511.93" height="512" viewBox="0 0 511.93 511.93" width="512" xmlns="http://www.w3.org/2000/svg"><g fill="#6c7ed6"><path d="m119.738 133.714 37.479 69.061 35.095-10.403 10.403-35.095-69.061-37.479c-8.919-4.841-18.774 4.965-13.916 13.916z"/><path d="m354.961 202.775 37.479-69.061c4.839-8.917-4.967-18.776-13.917-13.916l-69.06 37.479 10.403 35.095z"/><path d="m157.216 309.524-37.479 69.06c-4.84 8.919 4.965 18.774 13.917 13.917l69.06-37.479-10.403-35.094z"/><path d="m354.961 309.524-35.094 10.404-10.403 35.094 69.06 37.479c8.986 4.877 18.739-5.029 13.916-13.917z"/></g><path d="m147.183 133.714c-1.311-2.416-1.543-4.891-1.019-7.127l-12.51-6.789c-8.919-4.841-18.773 4.965-13.916 13.916l37.479 69.061 23.642-7.008z" fill="#4f67d2"/><path d="m343.634 199.417-4.594-15.497c-2.991-10.092 1.486-20.9 10.737-25.921l41.793-22.681.87-1.603c4.839-8.917-4.967-18.776-13.917-13.916l-69.06 37.479 10.403 35.095z" fill="#4f67d2"/><path d="m391.313 376.508-41.536-22.542c-9.251-5.021-13.728-15.829-10.737-25.921l4.486-15.132-23.658 7.014-10.403 35.094 69.06 37.479c8.986 4.877 18.739-5.029 13.916-13.917z" fill="#4f67d2"/><path d="m147.183 378.584 33.675-62.052-23.642-7.008-37.479 69.06c-4.84 8.919 4.965 18.773 13.917 13.917l12.514-6.792c-.525-2.238-.293-4.715 1.015-7.125z" fill="#4f67d2"/><path d="m192.479 191.804-175.743 52.091c-5.426 1.609-9.149 6.594-9.149 12.254h248.501z" fill="#d9edff"/><path d="m94.587 253.39 122.978-29.036c1.766-.417 3.308-1.361 4.473-2.649l-29.559-29.901-175.743 52.091c-5.426 1.609-9.148 6.594-9.148 12.254h84.858c-.021-1.202.69-2.417 2.141-2.759z" fill="#b4dbff"/><path d="m256.089 256.149 62.306 64.839 1.874-.658 175.173-51.927c5.426-1.609 9.148-6.594 9.148-12.254z" fill="#d9edff"/><path d="m320.269 320.33-64.18-64.18v248.5c5.66 0 10.645-3.722 12.254-9.148z" fill="#ff656f"/><path d="" fill="#ff656f"/><path d="m190.541 315.55 1.368 4.779 51.927 175.172c1.609 5.426 6.594 9.148 12.254 9.148v-248.5z" fill="#d9edff"/><path d="m191.908 320.329 51.927 175.172c1.609 5.426 6.594 9.149 12.254 9.149l-31.212-210.49c-.381-2.57-1.88-4.767-3.997-6.103l-30.338 27.493z" fill="#b4dbff"/><path d="m320.853 193.863-52.511-177.066c-1.609-5.426-6.594-9.148-12.254-9.148v248.501z" fill="#d9edff"/><path d="m191.908 191.969 64.18 64.18v-248.501c-5.66 0-10.645 3.722-12.254 9.148z" fill="#ff656f"/><path d="m243.835 16.797-51.927 175.172 29.935 29.935c1.231-1.277 2.082-2.917 2.36-4.749l31.886-209.507c-5.66 0-10.645 3.722-12.254 9.149z" fill="#ff4756"/><path d="m256.089 256.149h248.501c0-5.66-3.722-10.645-9.148-12.254l-175.172-51.927z" fill="#23a8fe"/><path d="m191.908 320.329 64.18-64.18h-248.5c0 5.66 3.722 10.645 9.149 12.254z" fill="#23a8fe"/><path d="m218.162 286.912-123.553-28.1c-1.422-.323-2.142-1.487-2.163-2.663h-84.858c0 5.66 3.722 10.645 9.148 12.254l175.172 51.927 30.776-30.776c-1.177-1.294-2.738-2.236-4.522-2.642z" fill="#0193fa"/><path d="m14.481 275.374 131.851 39.084-32.869 60.566c-8.141 14.999 8.351 31.581 23.407 23.408l60.567-32.87 39.084 131.851c2.535 8.546 10.53 14.516 19.444 14.516 8.915 0 16.911-5.97 19.444-14.517l39.085-131.85 60.568 32.87c15.06 8.172 31.547-8.411 23.407-23.408l-32.869-60.565 21.512-6.377c3.971-1.177 6.236-5.351 5.059-9.322-1.176-3.972-5.349-6.233-9.322-5.06l-30.372 9.003c-.005.001-.01.002-.016.004l-30.167 8.943-48.221-48.221h210.894l-68.473 20.297c-3.971 1.177-6.236 5.351-5.059 9.323 1.177 3.971 5.353 6.234 9.322 5.059l76.691-22.734c19.225-5.698 19.296-33.169.001-38.89l-131.849-39.084 32.869-60.567c8.141-14.999-8.351-31.58-23.407-23.408l-60.568 32.87-6.423-21.667c-1.177-3.971-5.342-6.236-9.322-5.06-3.971 1.177-6.236 5.351-5.059 9.322l17.996 60.71-48.222 48.221v-210.892l20.276 68.399c1.177 3.971 5.356 6.234 9.322 5.059 3.971-1.177 6.236-5.351 5.059-9.322l-22.713-76.619c-5.698-19.225-33.166-19.295-38.889 0l-39.084 131.85-60.566-32.869c-15.005-8.142-31.58 8.354-23.408 23.407l32.869 60.567-131.849 39.084c-19.226 5.7-19.293 33.169 0 38.889zm311.699 50.77 24.719-7.328 34.386 63.364c1.066 1.965-1.092 4.141-3.069 3.069l-63.363-34.388zm56.037-199.535c1.963-1.071 4.14 1.095 3.068 3.069l-34.387 63.364-24.719-7.327-7.327-24.718zm-59.924 73.6c5.457 1.618 155.172 45.998 162.672 48.221h-210.893zm-58.828 73.827 48.222 48.222-48.222 162.672zm-133.75 111.214c-1.973 1.067-4.139-1.099-3.069-3.07l34.387-63.363 24.719 7.327 7.327 24.718zm118.75 99.68-48.221-162.672 48.221-48.221zm0-458.001v210.893l-48.221-48.221zm-121.819 102.749c-1.084-1.998 1.128-4.121 3.069-3.069l63.363 34.387-7.327 24.718-24.719 7.327zm62.992 70.531 48.22 48.221h-210.893c7.47-2.215 157.205-46.601 162.673-48.221zm48.22 63.22-48.221 48.221c-15.674-4.646-14.849-4.402-30.167-8.942 0 0-132.505-39.278-132.507-39.279z"/><path d="m305.568 23.279c-4.043-.86-8.033 1.727-8.894 5.78-.859 4.052 1.729 8.033 5.78 8.893 85.938 18.237 153.251 85.55 171.487 171.488.865 4.073 4.867 6.638 8.894 5.78 4.052-.86 6.64-4.841 5.78-8.893-19.465-91.731-91.316-163.582-183.047-183.048z"/><path d="m206.364 23.279c-91.732 19.466-163.582 91.316-183.048 183.049-.99 4.669 2.575 9.058 7.345 9.058 3.466 0 6.58-2.418 7.329-5.945 18.236-85.939 85.549-153.252 171.487-171.489 4.052-.859 6.64-4.841 5.78-8.893s-4.844-6.642-8.893-5.78z"/><path d="m305.568 488.579c91.731-19.465 163.582-91.315 183.048-183.047.859-4.052-1.729-8.034-5.78-8.893-4.044-.862-8.033 1.727-8.894 5.78-18.236 85.938-85.549 153.251-171.487 171.488-4.052.859-6.64 4.841-5.78 8.893.86 4.051 4.84 6.639 8.893 5.779z"/><path d="m209.477 473.906c-85.939-18.237-153.251-85.55-171.487-171.488-.861-4.052-4.847-6.64-8.894-5.78-4.052.859-6.64 4.841-5.78 8.893 19.466 91.732 91.316 163.582 183.048 183.047 4.033.86 8.03-1.715 8.894-5.78.858-4.051-1.729-8.033-5.781-8.892z"/></svg>