<svg id="Layer_3" enable-background="new 0 0 64 64" height="512" viewBox="0 0 64 64" width="512" xmlns="http://www.w3.org/2000/svg"><path d="m34 38v10h-4v-10" fill="#f4b2b0"/><path d="m30 23v-21h4v21z" fill="#f4b2b0"/><g fill="#b3404a"><path d="m21.553 39.895c.138.069.292.105.447.105h7v8c0 .553.448 1 1 1h4c.552 0 1-.447 1-1v-8h4c.552 0 1-.447 1-1v-3h3c.552 0 1-.447 1-1v-3h3c.552 0 1-.447 1-1v-4-4c0-.553-.448-1-1-1h-3v-3c0-.553-.448-1-1-1h-8v-16c0-.553-.448-1-1-1h-4c-.552 0-1 .447-1 1v12h-7c-.265 0-.52.105-.707.293l-3.707 3.707h-16.586v2h13v2h-13v2h13v9 3h-13v2h16.764zm11.447 7.105h-2v-7h2zm13-21h-2v-2h2zm-4-4h-10v-2h10zm-11-19h2v15h-1v-3c0-.553-.448-1-1-1zm-15 17h2c.265 0 .52-.105.707-.293l3.707-3.707h7.586v2h-5-3c-.265 0-.52.105-.707.293l-3.707 3.707h-1.586zm0 13v-9h2c.265 0 .52-.105.707-.293l3.707-3.707h2.586 5v2h-5v2h6 11v2h-15v2h16 3v2h-3-16v2h15v2h-3-12v2h11v2h-15.764l-3.789-1.895c-.138-.069-.292-.105-.447-.105h-2z"/><path d="m62 47h-24c-.552 0-1 .447-1 1v2.465l-2.555 1.703c-.375.25-.537.721-.394 1.148l.726 2.177-2.777 1.389-2.777-1.389.726-2.177c.143-.428-.019-.898-.394-1.148l-2.555-1.703v-2.465c0-.553-.448-1-1-1h-24c-.552 0-1 .447-1 1v14c0 .553.448 1 1 1h60c.552 0 1-.447 1-1v-14c0-.553-.448-1-1-1zm-59 14v-8h16v-2h-16v-2h22v2c0 .334.167.646.445.832l2.364 1.576-.758 2.275c-.157.473.057.988.501 1.211l4 2c.281.141.613.141.895 0l4-2c.445-.223.659-.738.501-1.211l-.758-2.275 2.364-1.576c.279-.186.446-.498.446-.832v-2h22v2h-16v2h16v8z"/><path d="m41 51h2v2h-2z"/><path d="m57 55h2v2h-2z"/><path d="m41 55h14v2h-14z"/><path d="m21 51h2v2h-2z"/><path d="m5 55h2v2h-2z"/><path d="m9 55h14v2h-14z"/><path d="m37.528 42h8.944v2h-8.944z" transform="matrix(.894 -.447 .447 .894 -14.796 23.323)"/><path d="m21 38.528h2v8.944h-2z" transform="matrix(.447 -.894 .894 .447 -26.299 43.447)"/></g></svg>