<svg height="512" viewBox="0 0 512 512" width="512" xmlns="http://www.w3.org/2000/svg"><g id="filled_outline" data-name="filled outline"><path d="m224 336v-32h-32v72h48v-24a16 16 0 0 0 -16-16z" fill="#dc9315"/><path d="m416 56 48 24 11.016-8-3.016-34.438-8-5.562z" fill="#f85542"/><circle cx="344" cy="87.987" fill="#ff9201" r="24"/><path d="m144 232 .606 48-38.606 16.016 14.018 28.717 40.482-17.492a16 16 0 0 0 9.272-11.217l14.228-64.024z" fill="#75462e"/><path d="m24 488 8-56 56-8 56-56h144l64-112 40-24 24-64 32-32h40v352z" fill="#8e7760"/><path d="m136 232v7.862a32 32 0 0 0 23.209 30.769l32.791 9.369v32h32v-46.941a16 16 0 0 0 -7.768-13.72l-32.232-19.339-40-8z" fill="#905638"/><path d="m98.441 335.291 21.559-10.546-14.061-28.745-21.559 10.546-28.745 14.061 21.092 43.118 14.373-7.031a16 16 0 0 0 7.341-21.403z" fill="#dc9315"/><path d="m287.992 376a8 8 0 0 1 -7.871-6.617l-30.453-173.547a8 8 0 1 1 15.758-2.766l30.453 173.547a8 8 0 0 1 -6.5 9.266 8.48 8.48 0 0 1 -1.387.117z" fill="#4298d1"/><path d="m464 32h16v104h-16z" fill="#c94536"/><path d="m355.469 353.805 74.117-199.391-13.586 13.586-24 64-10.718 6.431-40.813 109.796z" fill="#74624f"/><path d="m364.496 250.211-1.462-.831-11.034 6.62-64 112h-8.927l-41.69 73.273 13.906 7.907z" fill="#74624f"/><path d="m155.338 368h-11.338l-56 56-13.606 1.944-26.339 26.197 11.281 11.343z" fill="#74624f"/><path d="m368 128h-.1a23.911 23.911 0 1 0 -47.8 0h-.1a16 16 0 0 0 0 32h48a16 16 0 0 0 0-32z" fill="#e4e4e2"/><path d="m328 103.994h-.1a23.911 23.911 0 1 0 -47.8 0h-.1a16 16 0 0 0 0 32h48a16 16 0 0 0 0-32z" fill="#ebebeb"/><g fill="#fdb62f"><path d="m336 15.984h16v24h-16z"/><path d="m293.575 33.564h15.998v23.997h-15.998z" transform="matrix(.707 -.707 .707 .707 56.111 226.59)"/><path d="m392 79.984h24v16h-24z"/><path d="m374.427 37.563h23.997v15.998h-23.997z" transform="matrix(.707 -.707 .707 .707 80.964 286.589)"/></g><path d="m253.206 216h16.243l-2.807-16h-16.244z" fill="#3b84bc"/><path d="m133.058 133.517a20 20 0 0 1 20 20v52a0 0 0 0 1 0 0h-40a0 0 0 0 1 0 0v-52a20 20 0 0 1 20-20z" fill="#69b9e7" transform="matrix(.964 .266 -.266 .964 49.976 -29.324)"/><circle cx="122.674" cy="209.76" fill="#3e8cc7" r="24"/><circle cx="183.998" cy="111.998" fill="#fad7be" r="32"/><path d="m184 232h-48l20.783-76.21a16 16 0 0 1 15.436-11.79h14.832a16 16 0 0 1 15.436 20.21z" fill="#ebebeb"/><path d="m224 104h-80v-8a32 32 0 0 1 32-32h16a32 32 0 0 1 32 32z" fill="#de4c3b"/><path d="m195.14 146.28-13.8 16.829a56.868 56.868 0 0 1 -31.889 19.553l-4.613 16.915a72.772 72.772 0 0 0 48.877-26.327l9.071-11.065a15.891 15.891 0 0 0 -7.646-15.905z" fill="#e9823b"/><path d="m178.812 178.812 21.188 21.188h72v-16a16 16 0 0 0 -16-16h-48l-5.654-8.481a15.29 15.29 0 0 0 -23.534-2.331 15.291 15.291 0 0 0 0 21.624z" fill="#fad7be"/><path d="m214.836 104h-61.806a31.821 31.821 0 0 0 -.919 7.989h63.773a31.965 31.965 0 0 0 -1.048-7.989z" fill="#eac9b3"/><path d="m488 128h-8v-96a8 8 0 0 0 -11.578-7.156l-48 24a8 8 0 0 0 0 14.312l43.578 21.789v43.055h-16a8 8 0 0 0 -5.656 2.344l-32 32a8.008 8.008 0 0 0 -1.836 2.844l-23.02 61.39-37.605 22.563a7.986 7.986 0 0 0 -2.828 2.89l-53.006 92.761-24.003-136.792h3.954a8 8 0 0 0 8-8v-16a24.027 24.027 0 0 0 -24-24h-43.719l-1.349-2.024a22.631 22.631 0 0 0 -3.151-10.1 23.152 23.152 0 0 0 -1.862-2.387 40.35 40.35 0 0 0 10.081-9.481 39.64 39.64 0 0 0 7.938-24.008h.062a8 8 0 0 0 8-8v-8a40.047 40.047 0 0 0 -40-40h-16a40.047 40.047 0 0 0 -40 40v8a8 8 0 0 0 8 8h.106a39.73 39.73 0 0 0 3.358 16.084 27.77 27.77 0 0 0 -37.093 18.564l-11.771 42.24a31.894 31.894 0 0 0 24.066 52.87h.352a32.249 32.249 0 0 0 5.092-.554 39.939 39.939 0 0 0 8.322 23.092l.136 10.384-33.629 13.929c-.061.026-.1.083-.161.11-.117.051-.242.037-.358.093l-50.3 24.61a8 8 0 0 0 -3.672 10.7l21.09 43.117a8 8 0 0 0 10.7 3.672l14.371-7.031a24.052 24.052 0 0 0 13.309-24.328l15.594-7.625c.021-.011.034-.032.056-.043l40.132-17.284a24.27 24.27 0 0 0 13.871-16.883l2.8-12.721 3.629 1.035v73.969h-40a8 8 0 0 0 -5.638 2.331l-54.48 54.183-53.012 7.567a8.006 8.006 0 0 0 -6.785 6.789l-8 56a8 8 0 0 0 7.915 9.13h464a8 8 0 0 0 8-8v-352a8 8 0 0 0 -8-8zm-46.113-72 22.113-11.055v22.11zm-163.412 304h-30.475v-8a24.051 24.051 0 0 0 -16-22.633v-73.367a7.993 7.993 0 0 0 -3.883-6.859l-34.8-20.879 5.608-20.476a7.746 7.746 0 0 0 1.075.214h51.8zm-54.475-16a8.008 8.008 0 0 1 8 8v8h-32v-40h16v16a8 8 0 0 0 8 8zm-16-168h48a8.008 8.008 0 0 1 8 8v8h-60.688l-18.843-18.844a7.289 7.289 0 0 1 0-10.312 7.1 7.1 0 0 1 5.871-2.094 7.182 7.182 0 0 1 5.348 3.2l5.656 8.485a8 8 0 0 0 6.656 3.565zm-4.789-49.609a23.94 23.94 0 0 1 -43.136-14.391h47.84a23.729 23.729 0 0 1 -4.704 14.391zm-35.637 48.815a56.2 56.2 0 0 1 -9.008 4.561l5.981-21.955a7.851 7.851 0 0 0 .359-.945 7.883 7.883 0 0 1 7.332-4.867h.533a22.627 22.627 0 0 0 -5.2 23.206zm8.426-103.206h16a24.027 24.027 0 0 1 24 24h-64a24.027 24.027 0 0 1 24-24zm-21.328 137.414a31.558 31.558 0 0 0 -1.647-9.309l.577-2.114a71.955 71.955 0 0 0 23.281-9.8l8.494 8.493-7.477 27.316h-26.719a31.687 31.687 0 0 0 3.491-14.586zm-28.867-58.539a11.825 11.825 0 0 1 5.578-7.242 11.863 11.863 0 0 1 17.757 9.855c-.018.057-.04.11-.058.168l-8.141 29.91a31.77 31.77 0 0 0 -18.273-5.808h-.344a31.2 31.2 0 0 0 -4.139.465zm8.3 70.078a15.889 15.889 0 0 1 -11.261 4.805 16.335 16.335 0 0 1 -11.364-4.558 16 16 0 0 1 11.02-27.437h.172a16 16 0 0 1 11.437 27.195zm-39.179 107.147a8 8 0 0 0 -3.672 10.7 8 8 0 0 1 -3.672 10.7l-7.182 3.523-14.064-28.742 35.93-17.578 7.034 14.367zm67.027-33.836a8.081 8.081 0 0 1 -4.637 5.672l-33.468 14.414-6.93-14.211 30.785-12.75a7.994 7.994 0 0 0 4.938-7.493l-.043-3.24a39.09 39.09 0 0 0 4.41 1.67l7.957 2.271zm-.547-31.321a24.119 24.119 0 0 1 -17.406-22.943h37.785l34.215 20.531v43.469h-16v-24a8.007 8.007 0 0 0 -5.8-7.695zm318.594 217.057h-446.777l5.847-40.93 25.836-3.689-16.851 16.76 11.281 11.343 33.2-33.023a7.771 7.771 0 0 0 1.116-.805l53.66-53.656h127.209l-37.138 65.273 13.906 7.907 106.626-187.4 18.9-11.342-36.35 97.79 15 5.578 67.435-181.388 28.412-28.418h28.688z"/><path d="m272.742 97.125a24 24 0 0 0 7.258 46.875h16a24.027 24.027 0 0 0 24 24h48a24 24 0 0 0 7.141-46.914 32.172 32.172 0 0 0 -6.269-13.037 31.979 31.979 0 1 0 -53.705-33.949 31.262 31.262 0 0 0 -30.319 4.254 31.866 31.866 0 0 0 -12.106 18.771zm71.258-25.125a16.019 16.019 0 0 1 16 16 15.753 15.753 0 0 1 -3.929 10.477 31.156 31.156 0 0 0 -7.505-2.157 31.742 31.742 0 0 0 -13.029.907c-.124-.041-.237-.11-.361-.149a31.312 31.312 0 0 0 -6.57-13.407 15.982 15.982 0 0 1 15.394-11.671zm-15.906 55.578a12.476 12.476 0 0 1 .066-1.867 16.029 16.029 0 0 1 15.828-13.719 15.235 15.235 0 0 1 2.293.172 16.015 16.015 0 0 1 13.619 15.828 8 8 0 0 0 8 8.008h.1a8 8 0 0 1 0 16h-48a8 8 0 1 1 .094-16c4.418 0 8-4.008 8-8.422zm-40.016-23.578a17.085 17.085 0 0 1 .074-2.281 16.009 16.009 0 0 1 18.141-13.563 15.248 15.248 0 0 1 8.484 4.156 15.562 15.562 0 0 1 5.145 11.688 7.683 7.683 0 0 0 .516 2.5 31.618 31.618 0 0 0 -7.7 14.62 23.962 23.962 0 0 0 -10.518 6.88h-22.22a8 8 0 1 1 .078-16 8 8 0 0 0 8-8z"/><path d="m336 15.984h16v24h-16z"/><path d="m293.575 33.564h15.998v23.997h-15.998z" transform="matrix(.707 -.707 .707 .707 56.111 226.59)"/><path d="m392 79.984h24v16h-24z"/><path d="m374.427 37.563h23.997v15.998h-23.997z" transform="matrix(.707 -.707 .707 .707 80.964 286.589)"/></g></svg>