<svg id="Layer_3" enable-background="new 0 0 64 64" height="512" viewBox="0 0 64 64" width="512" xmlns="http://www.w3.org/2000/svg"><path d="m38 44h9l4-4v4h11v-31l-4-4h4v-7h-42v5h4l-4 4v33" fill="#c8af8f"/><path d="m20 7h4l-4 4v27.98c2.536.66 5.219 1.02 8 1.02 15.464 0 28-10.969 28-24.5 0-4.99-1.709-9.629-4.637-13.5h-31.363z" fill="#f8e8ce"/><circle cx="20" cy="44" fill="#48a187" r="18"/><path d="m36.425 36.66c-2.811-6.279-9.101-10.66-16.425-10.66-9.941 0-18 8.059-18 18 0 3.383.951 6.537 2.574 9.24 2.753 1.132 5.765 1.76 8.926 1.76 11.205 0 20.572-7.845 22.925-18.34z" fill="#62d7c3"/><path d="m17 44h6l-3-10z" fill="#c8af8f"/><path d="m23 44-3 10-3-10" fill="#f8e8ce"/><path d="m17 26v-1c0-1.657 1.343-3 3-3 1.657 0 3 1.343 3 3v1" fill="#48a187"/><path d="m58 30h-8l2 3-2 3h8" fill="#e0747c"/><path d="m38 12c0-3.314-2.686-6-6-6s-6 2.686-6 6c0 2.562 1.608 4.742 3.868 5.603l2.132 6.397 2.132-6.397c2.26-.861 3.868-3.041 3.868-5.603z" fill="#e0747c"/><circle cx="32" cy="12" fill="#fff" r="2"/><path d="m20 63c-10.477 0-19-8.523-19-19s8.523-19 19-19 19 8.523 19 19-8.523 19-19 19zm0-36c-9.374 0-17 7.626-17 17s7.626 17 17 17 17-7.626 17-17-7.626-17-17-17z"/><path d="m7 44h-2c0-8.271 6.729-15 15-15v2c-7.168 0-13 5.832-13 13z"/><path d="m20 59v-2c7.168 0 13-5.832 13-13h2c0 8.271-6.729 15-15 15z"/><path d="m23 45h-6c-.316 0-.614-.149-.802-.403-.189-.254-.247-.582-.156-.884l3-10c.127-.423.517-.713.958-.713s.831.29.958.713l3 10c.091.303.033.63-.156.884-.188.254-.486.403-.802.403zm-4.656-2h3.312l-1.656-5.52z"/><path d="m20 55c-.441 0-.831-.29-.958-.713l-3-10 1.916-.574 2.042 6.807 2.042-6.807 1.916.574-3 10c-.127.423-.517.713-.958.713z"/><path d="m24 26h-2v-1c0-1.103-.897-2-2-2s-2 .897-2 2v1h-2v-1c0-2.206 1.794-4 4-4s4 1.794 4 4z"/><path d="m62 45h-11c-.552 0-1-.448-1-1v-1.586l-2.293 2.293c-.187.188-.442.293-.707.293h-9v-2h8.586l3.707-3.707c.286-.287.714-.373 1.09-.217.373.155.617.52.617.924v3h9v-29.586l-3.707-3.707c-.286-.286-.372-.716-.217-1.09.155-.373.52-.617.924-.617h3v-5h-40v3h3c.404 0 .769.244.924.617.155.374.069.804-.217 1.09l-3.707 3.707v10.586h-2v-11c0-.265.105-.52.293-.707l2.293-2.293h-1.586c-.552 0-1-.448-1-1v-5c0-.552.448-1 1-1h42c.552 0 1 .448 1 1v7c0 .552-.448 1-1 1h-1.586l2.293 2.293c.188.187.293.442.293.707v31c0 .552-.448 1-1 1z"/><path d="m32 15c-1.654 0-3-1.346-3-3s1.346-3 3-3 3 1.346 3 3-1.346 3-3 3zm0-4c-.551 0-1 .449-1 1s.449 1 1 1 1-.449 1-1-.449-1-1-1z"/><path d="m32 25c-.431 0-.812-.275-.949-.684l-1.989-5.969c-2.449-1.136-4.062-3.628-4.062-6.347 0-3.86 3.14-7 7-7s7 3.14 7 7c0 2.719-1.613 5.211-4.062 6.347l-1.989 5.969c-.137.409-.518.684-.949.684zm0-18c-2.757 0-5 2.243-5 5 0 2.058 1.295 3.934 3.224 4.668.28.107.498.334.593.618l1.183 3.551 1.184-3.551c.095-.284.312-.511.593-.618 1.928-.734 3.223-2.61 3.223-4.668 0-2.757-2.243-5-5-5z"/><path d="m57 27h2v14h-2z"/><path d="m58 37h-8c-.369 0-.708-.203-.882-.528s-.155-.72.05-1.026l1.63-2.446-1.63-2.445c-.205-.307-.224-.701-.05-1.026.174-.326.513-.529.882-.529h8v2h-6.131l.963 1.445c.224.336.224.773 0 1.109l-.963 1.446h6.131z"/><path d="m47 37c-3.309 0-6-2.691-6-6v-2c0-2.206-1.794-4-4-4h-2v-2h2c3.309 0 6 2.691 6 6v2c0 2.206 1.794 4 4 4z"/></svg>